<svg width="129" height="40" viewBox="0 0 129 40" fill="none" xmlns="http://www.w3.org/2000/svg" style="">
<path d="M47.5234 8.14355H48.5725V15.5307H47.5234C45.7242 15.5307 44.3367 15.9983 43.3609 16.9336C42.382 17.869 41.8941 19.1427 41.8941 20.7549V31.0556H34.8101V8.50968H41.8941V10.7557C43.4493 9.01426 45.3247 8.14355 47.5234 8.14355Z" fill="black" class="DzzOCqrI_0"></path>
<path d="M66.2319 8.50991H74.1515L63.8564 34.4248C63.2007 36.1386 62.1913 37.4954 60.8282 38.4953C59.4651 39.4952 57.9495 39.9967 56.2784 39.9967C55.208 39.9967 54.0797 39.7814 52.8965 39.3475C51.7102 38.9168 50.6917 38.3476 49.8348 37.64L52.5519 32.025C53.3082 32.7019 54.1498 33.0403 55.0769 33.0403C56.1472 33.0403 56.9096 32.5234 57.367 31.4866L57.7513 30.5574L49.0815 8.50684H57.1932L61.7095 21.7243L66.2258 8.50684L66.2319 8.50991Z" fill="black" class="DzzOCqrI_1"></path>
<path d="M88.4965 30.6258C90.808 30.6258 92.7475 31.2442 94.318 32.4841C95.8885 33.721 96.9009 35.4562 97.3584 37.6899L90.0365 39.7205C89.9511 39.059 89.6431 38.5237 89.1156 38.1237C88.588 37.7207 87.9293 37.5176 87.1456 37.5176H80.5099C78.2685 37.5176 76.4662 36.9207 75.1062 35.7239C73.743 34.5301 73.063 32.961 73.063 31.0166C73.063 29.792 73.3527 28.629 73.929 27.5276C74.5054 26.4261 75.2739 25.5801 76.2314 24.9893C74.2767 23.0602 73.2978 20.722 73.2978 17.9714C73.2978 15.2208 74.3194 12.741 76.3595 10.8335C78.3996 8.92595 80.9551 7.97217 84.0229 7.97217C85.6056 7.97217 87.0968 8.25215 88.4965 8.81518C88.8533 7.56297 89.5821 6.5692 90.68 5.83388C91.7778 5.09855 93.0982 4.73242 94.6413 4.73242H96.5685V11.3842H94.9859C94.5284 11.3842 94.1259 11.4857 93.7752 11.6857C93.4245 11.8888 93.1866 12.1534 93.0586 12.4857C94.1716 14.1409 94.7297 15.9716 94.7297 17.9714C94.7297 19.842 94.2631 21.5465 93.3269 23.0787C92.3907 24.6109 91.1069 25.8108 89.4724 26.6754C87.8378 27.5399 86.0234 27.9706 84.0259 27.9706C83.227 27.9706 82.2786 27.863 81.1777 27.6476C80.5068 27.9922 80.1714 28.5121 80.1714 29.2013C80.1714 29.6197 80.333 29.9613 80.6532 30.2258C80.9734 30.4935 81.4003 30.6258 81.9279 30.6258H88.4996H88.4965ZM84.0229 14.7317C83.0379 14.7317 82.2237 15.0393 81.5833 15.6485C80.9399 16.2608 80.6197 17.033 80.6197 17.9714C80.6197 18.9098 80.9399 19.679 81.5833 20.282C82.2267 20.8881 83.0379 21.1896 84.0229 21.1896C85.0079 21.1896 85.8008 20.885 86.4411 20.2728C87.0846 19.6605 87.4048 18.8944 87.4048 17.9714C87.4048 17.0484 87.0846 16.2792 86.4411 15.6608C85.7977 15.0424 84.9926 14.7317 84.0229 14.7317Z" fill="black" class="DzzOCqrI_2"></path>
<path d="M112.258 30.6258C114.57 30.6258 116.512 31.2442 118.08 32.4841C119.65 33.721 120.663 35.4562 121.12 37.6899L113.798 39.7205C113.713 39.059 113.405 38.5237 112.877 38.1237C112.35 37.7207 111.691 37.5176 110.907 37.5176H104.272C102.03 37.5176 100.228 36.9207 98.8679 35.7239C97.5047 34.5301 96.8247 32.961 96.8247 31.0166C96.8247 29.792 97.1144 28.629 97.6908 27.5276C98.2671 26.4261 99.0356 25.5801 99.9931 24.9893C98.0384 23.0602 97.0595 20.722 97.0595 17.9714C97.0595 15.2208 98.0811 12.741 100.121 10.8335C102.161 8.92595 104.717 7.97217 107.785 7.97217C109.367 7.97217 110.859 8.25215 112.258 8.81518C112.615 7.56297 113.344 6.5692 114.442 5.83388C115.539 5.09855 116.86 4.73242 118.403 4.73242H120.33V11.3842H118.748C118.29 11.3842 117.888 11.4857 117.537 11.6857C117.186 11.8888 116.948 12.1534 116.82 12.4857C117.933 14.1409 118.488 15.9716 118.488 17.9714C118.488 19.842 118.022 21.5465 117.086 23.0787C116.149 24.6109 114.866 25.8108 113.231 26.6754C111.596 27.5399 109.782 27.9706 107.785 27.9706C106.986 27.9706 106.037 27.863 104.936 27.6476C104.265 27.9922 103.93 28.5121 103.93 29.2013C103.93 29.6197 104.092 29.9613 104.412 30.2258C104.732 30.4935 105.159 30.6258 105.687 30.6258H112.258ZM107.785 14.7317C106.8 14.7317 105.985 15.0393 105.345 15.6485C104.702 16.2608 104.381 17.033 104.381 17.9714C104.381 18.9098 104.702 19.679 105.345 20.282C105.988 20.8881 106.8 21.1896 107.785 21.1896C108.77 21.1896 109.562 20.885 110.203 20.2728C110.846 19.6605 111.167 18.8944 111.167 17.9714C111.167 17.0484 110.846 16.2792 110.203 15.6608C109.559 15.0424 108.754 14.7317 107.785 14.7317Z" fill="black" class="DzzOCqrI_3"></path>
<path d="M128.997 8.50977H121.913V31.0557H128.997V8.50977Z" fill="black" class="DzzOCqrI_4"></path>
<path d="M29.9553 7.74402C28.5677 5.3319 26.6465 3.43974 24.1978 2.06446C21.7521 0.689178 19.0228 0 16.0129 0C13.0031 0 10.2921 0.689178 7.84637 2.06446C5.39762 3.43974 3.47948 5.3319 2.08586 7.74402C0.698336 10.1561 0 12.839 0 15.7896C0 18.0078 0.411683 20.0938 1.232 22.0445C2.05231 23.9951 3.17148 25.6688 4.5834 27.0656C5.99227 28.4624 7.69084 29.567 9.67607 30.3792C11.6582 31.1914 13.7685 31.6037 16.0129 31.6037C19.0228 31.6037 21.749 30.9145 24.1978 29.5393C26.6465 28.164 28.5647 26.2657 29.9553 23.8505C31.3489 21.4291 32.0472 18.7463 32.0472 15.7957C32.0472 12.8452 31.3489 10.1623 29.9553 7.75017V7.74402Z" fill="black" class="DzzOCqrI_5"></path>
<path d="M24.5329 9.70361L25.5697 11.5527L21.8493 13.7064L20.8735 13.0326L20.8125 11.8573L24.5329 9.70361Z" fill="#F9E103" class="DzzOCqrI_6"></path>
<path d="M20.3857 6.25781L22.1544 7.3685L20.0167 11.0605L18.861 11.0021L18.187 10.0175L20.3857 6.25781Z" fill="#F9E103" class="DzzOCqrI_7"></path>
<path d="M7.63558 9.58691L11.4139 11.7406L11.356 12.9097L10.2582 13.5805L6.5957 11.4329L7.63558 9.58691Z" fill="#F9E103" class="DzzOCqrI_8"></path>
<path d="M5.68408 14.5679H9.95338L10.5023 15.7401L9.95338 16.7862H5.68408V14.5679Z" fill="#F9E103" class="DzzOCqrI_9"></path>
<path d="M7.57187 21.8324L6.53809 19.9833L10.1975 17.8296L11.1733 18.5095L11.2984 19.6787L7.57187 21.8324Z" fill="#F9E103" class="DzzOCqrI_10"></path>
<path d="M11.7253 25.2781L9.89258 24.2321L12.0882 20.4785L13.247 20.5401L13.86 21.6477L11.7253 25.2781Z" fill="#F9E103" class="DzzOCqrI_11"></path>
<path d="M13.311 10.9375L12.1522 11.0021L10.0176 7.24237L11.8412 6.13477L13.9819 9.95293L13.311 10.9375Z" fill="#F9E103" class="DzzOCqrI_12"></path>
<path d="M17.0282 26.2041H14.8936V21.8936L15.9304 21.3398L17.0282 21.8936V26.2041Z" fill="#F9E103" class="DzzOCqrI_13"></path>
<path d="M17.2111 9.70385L16.1164 10.2607L15.0186 9.70385V5.39648H17.2111V9.70385Z" fill="#F9E103" class="DzzOCqrI_14"></path>
<path d="M20.1996 25.3427L18.0649 21.7061L18.7358 20.6631L19.8946 20.54L22.0933 24.2905L20.1996 25.3427Z" fill="#F9E103" class="DzzOCqrI_15"></path>
<path d="M24.4754 22.0139L20.6909 19.9248L20.7489 18.691L21.7277 18.0142L25.5091 20.1709L24.4754 22.0139Z" fill="#F9E103" class="DzzOCqrI_16"></path>
<path d="M26.3626 16.9095H22.1543L21.5444 15.8604L22.1543 14.7559H26.3626V16.9095Z" fill="#F9E103" class="DzzOCqrI_17"></path>
<style data-made-with="vivus-instant">.DzzOCqrI_0{stroke-dasharray:74 76;stroke-dashoffset:75;animation:DzzOCqrI_draw 2000ms linear 0ms forwards;}.DzzOCqrI_1{stroke-dasharray:126 128;stroke-dashoffset:127;animation:DzzOCqrI_draw 2000ms linear 58ms forwards;}.DzzOCqrI_2{stroke-dasharray:156 158;stroke-dashoffset:157;animation:DzzOCqrI_draw 2000ms linear 117ms forwards;}.DzzOCqrI_3{stroke-dasharray:156 158;stroke-dashoffset:157;animation:DzzOCqrI_draw 2000ms linear 176ms forwards;}.DzzOCqrI_4{stroke-dasharray:60 62;stroke-dashoffset:61;animation:DzzOCqrI_draw 2000ms linear 235ms forwards;}.DzzOCqrI_5{stroke-dasharray:101 103;stroke-dashoffset:102;animation:DzzOCqrI_draw 2000ms linear 294ms forwards;}.DzzOCqrI_6{stroke-dasharray:14 16;stroke-dashoffset:15;animation:DzzOCqrI_draw 2000ms linear 352ms forwards;}.DzzOCqrI_7{stroke-dasharray:14 16;stroke-dashoffset:15;animation:DzzOCqrI_draw 2000ms linear 411ms forwards;}.DzzOCqrI_8{stroke-dasharray:14 16;stroke-dashoffset:15;animation:DzzOCqrI_draw 2000ms linear 470ms forwards;}.DzzOCqrI_9{stroke-dasharray:14 16;stroke-dashoffset:15;animation:DzzOCqrI_draw 2000ms linear 529ms forwards;}.DzzOCqrI_10{stroke-dasharray:14 16;stroke-dashoffset:15;animation:DzzOCqrI_draw 2000ms linear 588ms forwards;}.DzzOCqrI_11{stroke-dasharray:14 16;stroke-dashoffset:15;animation:DzzOCqrI_draw 2000ms linear 647ms forwards;}.DzzOCqrI_12{stroke-dasharray:14 16;stroke-dashoffset:15;animation:DzzOCqrI_draw 2000ms linear 705ms forwards;}.DzzOCqrI_13{stroke-dasharray:14 16;stroke-dashoffset:15;animation:DzzOCqrI_draw 2000ms linear 764ms forwards;}.DzzOCqrI_14{stroke-dasharray:14 16;stroke-dashoffset:15;animation:DzzOCqrI_draw 2000ms linear 823ms forwards;}.DzzOCqrI_15{stroke-dasharray:14 16;stroke-dashoffset:15;animation:DzzOCqrI_draw 2000ms linear 882ms forwards;}.DzzOCqrI_16{stroke-dasharray:14 16;stroke-dashoffset:15;animation:DzzOCqrI_draw 2000ms linear 941ms forwards;}.DzzOCqrI_17{stroke-dasharray:14 16;stroke-dashoffset:15;animation:DzzOCqrI_draw 2000ms linear 1000ms forwards;}@keyframes DzzOCqrI_draw{100%{stroke-dashoffset:0;}}@keyframes DzzOCqrI_fade{0%{stroke-opacity:1;}94.44444444444444%{stroke-opacity:1;}100%{stroke-opacity:0;}}</style></svg>
